<svg xmlns="http://www.w3.org/2000/svg" width="192" height="192" viewBox="0 0 192 192">
  <defs>
    <linearGradient id="bg" x1="50%" y1="0%" x2="50%" y2="100%">
      <stop offset="0%" stop-color="#f0c8a5"/>
      <stop offset="100%" stop-color="#3f95a4"/>
    </linearGradient>
    <linearGradient id="stem" x1="20%" y1="0%" x2="80%" y2="100%">
      <stop offset="0%" stop-color="#fff7ea"/>
      <stop offset="100%" stop-color="#f5d7a2"/>
    </linearGradient>
    <filter id="shadow" x="-20%" y="-20%" width="140%" height="140%" filterUnits="objectBoundingBox">
      <feOffset dx="0" dy="4" result="off"/>
      <feGaussianBlur in="off" stdDeviation="6" result="blur"/>
      <feColorMatrix in="blur" type="matrix" values="0 0 0 0 0   0 0 0 0 0   0 0 0 0 0   0 0 0 0.25 0"/>
    </filter>
  </defs>
  <rect width="192" height="192" rx="30" fill="url(#bg)"/>
  <path fill="#5aaec0" opacity="0.6" d="M-10 134c24 12 48 18 72 18 24 0 48-6 72-18 24-12 48-18 72-18v76H-10z"/>
  <path fill="#38899a" opacity="0.55" d="M-10 150c22 9 44 14 66 14s44-5 66-14 44-14 66-14v60H-10z"/>
  <g filter="url(#shadow)">
    <rect x="92" y="52" width="20" height="86" rx="10" fill="url(#stem)" transform="rotate(-8 102 95)"/>
  </g>
  <path fill="#fff" opacity="0.85" d="M38 138c28 13 56 19 85 19 18 0 35-2 52-7l-9 20c-15 4-30 6-45 6-29 0-57-6-83-19z"/>
  <circle cx="118" cy="40" r="12" fill="#fff7ea"/>
  <circle cx="118" cy="40" r="20" fill="#fff7ea" opacity="0.35"/>
</svg>
